<?xml version="1.0" standalone="no"?>
<!DOCTYPE svg PUBLIC "-//W3C//DTD SVG 20010904//EN"
 "http://www.w3.org/TR/2001/REC-SVG-20010904/DTD/svg10.dtd">
<svg version="1.0" xmlns="http://www.w3.org/2000/svg"
 width="260.000000pt" height="260.000000pt" viewBox="0 0 260.000000 260.000000"
 preserveAspectRatio="xMidYMid meet">
<metadata>
Created by potrace 1.11, written by Peter Selinger 2001-2013
</metadata>
<g transform="translate(0.000000,260.000000) scale(0.100000,-0.100000)"
fill="#000000" stroke="none">
<path d="M1132 2590 c-301 -43 -565 -179 -775 -400 -171 -180 -278 -385 -333
-641 -26 -118 -26 -380 0 -498 59 -273 168 -474 360 -666 195 -194 395 -302
667 -361 118 -26 380 -26 498 0 273 59 474 167 667 360 193 193 301 394 360
667 14 62 18 127 18 249 0 122 -4 187 -18 249 -59 273 -167 474 -360 667 -190
189 -384 296 -646 355 -98 22 -340 33 -438 19z m741 -1603 c36 -23 35 -60 -2
-120 -80 -126 -242 -231 -426 -277 -75 -19 -107 -22 -200 -17 -129 6 -200 23
-310 76 -172 83 -319 232 -301 306 12 49 63 53 681 51 490 -1 533 -2 558 -19z"/>
</g>
</svg>
