<?xml version="1.0" encoding="utf-8"?><svg xmlns="http://www.w3.org/2000/svg" xmlns:xlink="http://www.w3.org/1999/xlink"><symbol viewBox="-133 -85.8 512 512" id="admin" xmlns="http://www.w3.org/2000/svg"><path d="M61.1 58H113v20H78.6c-5.5 0-10 4.5-10 10s4.5 10 10 10H113v10c0 5.5 4.5 10 10 10s10-4.5 10-10V98h158.8v10c0 5.5 4.5 10 10 10s10-4.5 10-10V88c0-5.5-4.5-10-10-10H133V58h52.1c5.5 0 10-4.5 10-10V28c0-22.4-16-41-37.2-45.1 4.1-6.4 6.4-14 6.4-22.1v-5.4c0-22.7-18.5-41.2-41.2-41.2S81.9-67.3 81.9-44.6v5.4c0 8.1 2.4 15.7 6.4 22.1-21.1 4-37.2 22.7-37.2 45.1v20c0 5.5 4.5 10 10 10zm40.8-102.6a21.21 21.21 0 0142.4 0v5.4a21.21 21.21 0 01-42.4 0v-5.4zM71.1 28c0-14.3 11.7-26 26-26h52c14.3 0 26 11.7 26 26v10h-104V28zm-189 253.8h52v20h-34.8c-5.5 0-10 4.5-10 10v20c0 5.5 4.5 10 10 10s10-4.5 10-10v-10h69.6v10c0 5.5 4.5 10 10 10s10-4.5 10-10v-20c0-5.5-4.5-10-10-10h-34.8v-20h52c5.5 0 10-4.5 10-10v-20c0-22.4-16-41-37.2-45.1 4.1-6.4 6.4-14 6.4-22.1v-5.4c0-22.7-18.5-41.2-41.2-41.2s-41.2 18.5-41.2 41.2v5.4c0 8.1 2.4 15.7 6.4 22.1a46.02 46.02 0 00-37.2 45.1v20c0 5.5 4.5 10 10 10zm40.8-102.6a21.21 21.21 0 0142.4 0v5.4a21.21 21.21 0 01-42.4 0v-5.4zm-30.8 72.6c0-14.3 11.7-26 26-26h52c14.3 0 26 11.7 26 26v10h-104v-10zm169 30H113v20H78.2c-5.5 0-10 4.5-10 10v20c0 5.5 4.5 10 10 10s10-4.5 10-10v-10h69.5v10c0 5.5 4.5 10 10 10s10-4.5 10-10v-20c0-5.5-4.5-10-10-10H133v-20h52.1c5.5 0 10-4.5 10-10v-20c0-22.4-16-41-37.2-45.1 4.1-6.4 6.4-14 6.4-22.1v-5.4c0-22.7-18.5-41.2-41.2-41.2s-41.2 18.5-41.2 41.2v5.4c0 8.1 2.4 15.7 6.4 22.1a46.02 46.02 0 00-37.2 45.1v20c0 5.5 4.5 10 10 10zm40.8-102.6a21.21 21.21 0 0142.4 0v5.4a21.21 21.21 0 01-42.4 0v-5.4zm-30.8 72.6c0-14.3 11.7-26 26-26h52c14.3 0 26 11.7 26 26v10h-104v-10zm189.6-72.6v5.4c0 8.1 2.4 15.7 6.4 22.1a46.02 46.02 0 00-37.2 45.1v20c0 5.5 4.5 10 10 10h52v20h-34.8c-5.5 0-10 4.5-10 10v20c0 5.5 4.5 10 10 10s10-4.5 10-10v-10h69.6v10c0 5.5 4.5 10 10 10s10-4.5 10-10v-20c0-5.5-4.5-10-10-10h-34.8v-20h52c5.5 0 10-4.5 10-10v-20c0-22.4-16-41-37.2-45.1 4.1-6.4 6.4-14 6.4-22.1v-5.4c0-22.7-18.5-41.2-41.2-41.2s-41.2 18.5-41.2 41.2zm93.2 72.6v10h-104v-10c0-14.3 11.7-26 26-26h52c14.4 0 26 11.7 26 26zm-30.8-72.6v5.4a21.21 21.21 0 01-42.4 0v-5.4a21.21 21.21 0 0142.4 0zm-423.8 182.4c-17.8 0-32.3 14.5-32.3 32.3s14.5 32.3 32.3 32.3 32.3-14.5 32.3-32.3-14.5-32.3-32.3-32.3zm0 44.6a12.3 12.3 0 110-24.6 12.3 12.3 0 110 24.6zm89.5-44.6c-17.8 0-32.3 14.5-32.3 32.3s14.5 32.3 32.3 32.3 32.3-14.5 32.3-32.3-14.4-32.3-32.3-32.3zm0 44.6a12.3 12.3 0 110-24.6 12.3 12.3 0 110 24.6zm89.6-44.6c-17.8 0-32.3 14.5-32.3 32.3s14.5 32.3 32.3 32.3 32.3-14.5 32.3-32.3-14.5-32.3-32.3-32.3zm0 44.6a12.3 12.3 0 110-24.6 12.3 12.3 0 110 24.6zm89.5-44.6c-17.8 0-32.3 14.5-32.3 32.3s14.5 32.3 32.3 32.3 32.3-14.5 32.3-32.3-14.4-32.3-32.3-32.3zm0 44.6a12.3 12.3 0 110-24.6 12.3 12.3 0 110 24.6zm89.4-44.6c-17.8 0-32.3 14.5-32.3 32.3s14.5 32.3 32.3 32.3 32.3-14.5 32.3-32.3-14.5-32.3-32.3-32.3zm0 44.6a12.3 12.3 0 110-24.6 12.3 12.3 0 110 24.6zm89.4-44.6c-17.8 0-32.3 14.5-32.3 32.3s14.5 32.3 32.3 32.3 32.3-14.5 32.3-32.3-14.5-32.3-32.3-32.3zm0 44.6a12.3 12.3 0 110-24.6 12.3 12.3 0 110 24.6zM-55.8 118c5.5 0 10-4.5 10-10V98h34.4c5.5 0 10-4.5 10-10s-4.5-10-10-10h-44.4c-5.5 0-10 4.5-10 10v20c0 5.5 4.5 10 10 10zm89.4-40c-2.6 0-5.2 1.1-7.1 2.9-1.9 1.9-2.9 4.4-2.9 7.1s1.1 5.2 2.9 7.1a9.9 9.9 0 007.1 2.9c2.6 0 5.2-1.1 7.1-2.9 1.9-1.9 2.9-4.4 2.9-7.1s-1.1-5.2-2.9-7.1a9.9 9.9 0 00-7.1-2.9z"/></symbol><symbol viewBox="0 0 11 11" id="alert" xmlns="http://www.w3.org/2000/svg"><circle cx="6" cy="6" r="4.5"/><path d="M5.8 3.6h.4L6 6.5z"/><circle cx="6" cy="8.2" r=".6"/></symbol><symbol viewBox="0 0 488.15 488.15" id="calendar" xmlns="http://www.w3.org/2000/svg"><path d="M177.85 269.31c0-6.11-4.96-11.07-11.08-11.07h-38.66a11.07 11.07 0 00-11.08 11.07v38.66c0 6.12 4.97 11.08 11.08 11.08h38.66c6.12 0 11.08-4.96 11.08-11.08v-38.66zm96.63 0c0-6.11-4.96-11.07-11.07-11.07h-38.67a11.07 11.07 0 00-11.07 11.07v38.66c0 6.12 4.96 11.08 11.07 11.08h38.67c6.11 0 11.07-4.96 11.07-11.08v-38.66zm96.64 0c0-6.11-4.96-11.07-11.08-11.07h-38.66a11.07 11.07 0 00-11.08 11.07v38.66c0 6.12 4.96 11.08 11.08 11.08h38.66c6.12 0 11.08-4.96 11.08-11.08v-38.66zm-193.27 96.64c0-6.13-4.96-11.07-11.08-11.07h-38.66a11.07 11.07 0 00-11.08 11.07v38.65c0 6.12 4.97 11.08 11.08 11.08h38.66c6.12 0 11.08-4.96 11.08-11.08v-38.65zm96.63 0c0-6.13-4.96-11.07-11.07-11.07h-38.67a11.07 11.07 0 00-11.07 11.07v38.65c0 6.12 4.96 11.08 11.07 11.08h38.67c6.11 0 11.07-4.96 11.07-11.08v-38.65zm96.64 0c0-6.13-4.96-11.07-11.07-11.07h-38.67a11.07 11.07 0 00-11.08 11.07v38.65c0 6.12 4.96 11.08 11.08 11.08h38.67c6.1 0 11.07-4.96 11.07-11.08v-38.65z"/><path d="M440.25 54.35v59.05a48.23 48.23 0 01-48.33 48.2h-30.5c-26.69 0-48.62-21.5-48.62-48.2V54.14H175.36v59.26c0 26.7-21.94 48.2-48.63 48.2h-30.5a48.23 48.23 0 01-48.33-48.2V54.35c-23.32.7-42.49 20-42.49 43.73v346.06c0 24.16 19.59 44.01 43.76 44.01h389.82c24.13 0 43.75-19.89 43.75-44.01V98.08c0-23.72-19.16-43.02-42.49-43.73zM426.1 422.6a18.92 18.92 0 01-18.91 18.92H80.13a18.92 18.92 0 01-18.91-18.92V243.84a18.92 18.92 0 0118.91-18.93h327.03a18.92 18.92 0 0118.92 18.93v178.75z"/><path d="M96.13 129.94h30.16c9.15 0 16.58-7.4 16.58-16.56v-96.8c0-9.16-7.43-16.58-16.58-16.58H96.13a16.57 16.57 0 00-16.58 16.57v96.8c0 9.16 7.42 16.57 16.58 16.57zm264.91 0h30.16c9.15 0 16.57-7.4 16.57-16.56v-96.8C407.77 7.41 400.35 0 391.2 0h-30.16a16.57 16.57 0 00-16.58 16.57v96.8c0 9.16 7.42 16.57 16.58 16.57z"/></symbol><symbol viewBox="0 0 329.269 329" id="close" xmlns="http://www.w3.org/2000/svg"><path d="M194.8 164.77L323.013 36.555c8.343-8.34 8.343-21.825 0-30.164-8.34-8.34-21.825-8.34-30.164 0L164.633 134.605 36.422 6.391c-8.344-8.34-21.824-8.34-30.164 0-8.344 8.34-8.344 21.824 0 30.164l128.21 128.215L6.259 292.984c-8.344 8.34-8.344 21.825 0 30.164a21.266 21.266 0 0015.082 6.25c5.46 0 10.922-2.09 15.082-6.25l128.21-128.214 128.216 128.214a21.273 21.273 0 0015.082 6.25c5.46 0 10.922-2.09 15.082-6.25 8.343-8.34 8.343-21.824 0-30.164zm0 0"/></symbol><symbol viewBox="0 0 492 492" id="confirm" xmlns="http://www.w3.org/2000/svg"><path d="M484.13 104.48L468 88.36a26.7 26.7 0 00-19-7.85 26.7 26.7 0 00-19.03 7.85L203.51 314.81 62.02 173.32A26.73 26.73 0 0043 165.47c-7.2 0-13.96 2.8-19.03 7.85L7.85 189.43A26.75 26.75 0 000 208.47c0 7.2 2.78 13.96 7.85 19.03L167.6 387.23c.2.3.43.58.7.84l16.11 15.85c5.07 5.05 11.82 7.57 19.09 7.57h.08c7.21 0 13.97-2.52 19.02-7.57l16.13-15.99c.26-.26.48-.47.61-.68l244.78-244.76a26.87 26.87 0 000-38.01z"/></symbol><symbol viewBox="-61.3 -85.8 368.6 512" id="delete" xmlns="http://www.w3.org/2000/svg"><path d="M-41.1 168.5v186.8c0 39.1 31.7 70.9 70.9 70.9h186c39.1 0 70.9-31.7 70.9-70.9V117.6H-40.1s-1 11.7-1 50.9zM195.3-41.8v-30c0-7.7-6.3-14-14-14H64.7c-7.7 0-14 6.3-14 14v30c0 7.7-6.3 14-14 14h-84c-7.7 0-14 6.3-14 14v67c0 7.7 6.3 14 14 14h340.6c7.7 0 14-6.3 14-14v-67c0-7.7-6.3-14-14-14h-84c-7.7 0-14-6.3-14-14zm-44 14H94.7c-7.7 0-14-6.3-14-14s6.3-14 14-14h56.7c7.7 0 14 6.3 14 14-.1 7.7-6.3 14-14.1 14z"/></symbol><symbol viewBox="-103 -64.7 333 480.9" id="devices" xmlns="http://www.w3.org/2000/svg"><path d="M230-22.2v-20c0-12.4-10.1-22.5-22.5-22.5h-288c-12.4 0-22.5 10.1-22.5 22.5V-.8c0 4.1 3.4 7.5 7.5 7.5S-88 3.3-88-.8v-41.4c0-4.1 3.4-7.5 7.5-7.5h288c4.1 0 7.5 3.4 7.5 7.5v292c0 4.1-3.4 7.5-7.5 7.5h-288c-4.1 0-7.5-3.4-7.5-7.5V31.2c0-4.1-3.4-7.5-7.5-7.5s-7.5 3.4-7.5 7.5v218.6c0 12.4 10.1 22.5 22.5 22.5h288c12.4 0 22.5-10.1 22.5-22.5v-272z"/><circle class="agst0" cx="-26.7" cy="185.1" r="32.8"/><circle class="agst0" cx="66.5" cy="185.1" r="32.8"/><circle class="agst0" cx="155.7" cy="185.1" r="32.8"/><path d="M187.5-1.1h-249c-3.8 0-7-3.1-7-7 0-3.8 3.1-7 7-7h249c3.9 0 7 3.1 7 7s-3.1 7-7 7zm0 30h-249c-3.8 0-7-3.1-7-7s3.1-7 7-7h249c3.9 0 7 3.1 7 7s-3.1 7-7 7zm0 31h-249c-3.8 0-7-3.1-7-7s3.1-7 7-7h249c3.9 0 7 3.1 7 7s-3.1 7-7 7zM62 406.9c4.1 0 7.5-3.4 7.5-7.5v-127c0-4.1-3.4-7.5-7.5-7.5s-7.5 3.4-7.5 7.5v127c0 4.1 3.4 7.5 7.5 7.5z"/><ellipse cx="62.5" cy="403.7" rx="66" ry="12.5"/></symbol><symbol viewBox="0 0 528.9 528.9" id="edit" xmlns="http://www.w3.org/2000/svg"><path d="M328.88 89.13l107.6 107.58-272.35 272.34L56.6 361.46 328.88 89.13zm189.23-25.95L470.13 15.2a47.61 47.61 0 00-67.26 0l-45.96 45.96 107.6 107.59 53.6-53.61a36.68 36.68 0 000-51.96zM.3 512.69c-1.96 8.81 6 16.7 14.81 14.56l119.9-29.06-107.54-107.6L.3 512.7z"/></symbol><symbol viewBox="0 0 391.4 298.4" id="email" xmlns="http://www.w3.org/2000/svg"><path d="M342.6 298.4c26.9 0 48.7-21.8 48.7-48.7v-201c0-26.9-21.8-48.7-48.7-48.7H48.7C21.8 0 0 21.8 0 48.7v200.9c0 26.9 21.8 48.7 48.7 48.7l293.9.1zM49.8 67.8c-5-4.3-5.7-11.8-1.4-16.9 4.3-5 11.8-5.7 16.9-1.4l130.3 110.6L326.1 49.5c5-4.3 12.6-3.7 16.9 1.4 4.3 5 3.7 12.6-1.4 16.9l-93 79 93.5 88c4.8 4.6 5 12.2.5 17-2.4 2.5-5.5 3.8-8.7 3.8-3 0-5.9-1.1-8.2-3.3l-95.4-89.8-26.6 22.6c-2.2 1.9-5 2.9-7.8 2.9s-5.5-1-7.8-2.9l-26.7-22.6L66 252.3c-2.3 2.2-5.3 3.3-8.2 3.3-3.2 0-6.4-1.3-8.7-3.8-4.6-4.8-4.3-12.4.5-17l93.5-88.1-93.3-78.9zm0 0"/></symbol><symbol viewBox="0 0 391.9 234.7" id="eye" xmlns="http://www.w3.org/2000/svg"><defs><path id="aja" d="M0 0h391.9v234.7H0z"/></defs><clipPath id="ajb"><use xlink:href="#aja" overflow="visible"/></clipPath><path d="M195.5.6C120.8.6 53.1 41.5 3.1 107.9c-4.1 5.4-4.1 13 0 18.5 50 66.5 117.8 107.4 192.5 107.4s142.5-40.9 192.5-107.3c4.1-5.4 4.1-13 0-18.5C338 41.5 270.3.6 195.5.6zm5.4 198.7c-49.6 3.1-90.6-37.8-87.4-87.4 2.6-41 35.8-74.2 76.7-76.7 49.6-3.1 90.6 37.8 87.4 87.4-2.6 40.8-35.8 74-76.7 76.7zm-2.5-37.9c-26.7 1.7-48.8-20.3-47-47 1.4-22.1 19.3-39.9 41.4-41.4 26.7-1.7 48.8 20.3 47 47-1.5 22.2-19.4 40-41.4 41.4zm0 0" clip-path="url(#ajb)"/></symbol><symbol viewBox="0 0 512 512" id="filter" xmlns="http://www.w3.org/2000/svg"><path d="M490.67 405.33h-56.81c-9.24-30.74-37.49-53.33-71.2-53.33s-61.92 22.6-71.18 53.33H21.33a21.34 21.34 0 000 42.67h270.15c9.23 30.74 37.48 53.33 71.19 53.33s61.93-22.59 71.18-53.33h56.82a21.33 21.33 0 100-42.67zm-128 53.34c-17.65 0-32-14.36-32-32s14.35-32 32-32 32 14.35 32 32-14.36 32-32 32zM490.67 64h-56.81c-9.26-30.74-37.49-53.33-71.2-53.33S300.75 33.26 291.49 64H21.33a21.34 21.34 0 000 42.67h270.15c9.26 30.74 37.48 53.33 71.19 53.33s61.93-22.6 71.19-53.33h56.8a21.33 21.33 0 100-42.67zm-128 53.33c-17.65 0-32-14.35-32-32 0-17.64 14.35-32 32-32s32 14.36 32 32c0 17.65-14.36 32-32 32zm128 117.34H220.52c-9.26-30.74-37.48-53.34-71.19-53.34s-61.93 22.6-71.19 53.34h-56.8a21.34 21.34 0 000 42.66h56.8c9.26 30.74 37.49 53.34 71.2 53.34s61.92-22.6 71.18-53.34h270.15a21.33 21.33 0 100-42.66zM149.33 288c-17.64 0-32-14.36-32-32s14.36-32 32-32c17.65 0 32 14.36 32 32s-14.35 32-32 32z"/></symbol><symbol viewBox="0 0 971.99 971.99" id="filter-rating" xmlns="http://www.w3.org/2000/svg"><path d="M370.22 459.3a59.98 59.98 0 0115.8 40.6v442c0 26.6 32.1 40.1 51.1 21.4L560.42 822c16.5-19.8 25.6-29.6 25.6-49.2V500c0-15 5.7-29.5 15.8-40.6l353.8-383.9c26.5-28.8 6.1-75.5-33.1-75.5h-873c-39.2 0-59.7 46.6-33.1 75.5l353.8 383.8z"/></symbol><symbol viewBox="0 0 512 512" id="help" xmlns="http://www.w3.org/2000/svg"><path d="M310.524 304.234a7.5 7.5 0 00-.041-15h-.043c-6.391.036-13.271.061-18.251.062v-66.159c0-4.142-3.357-7.5-7.5-7.5s-7.5 3.358-7.5 7.5v73.597a7.5 7.5 0 006.231 7.392c.531.091 18.776.155 27.104.108zm-128.917-88.597a7.5 7.5 0 00-7.5 7.5v28.066h-35.973v-28.066a7.5 7.5 0 00-15 0v73.659a7.5 7.5 0 0015 0v-30.593h35.973v30.593a7.5 7.5 0 0015 0v-73.659a7.5 7.5 0 00-7.5-7.5zm67.038 15.673a7.5 7.5 0 000-15h-30.753a7.5 7.5 0 00-7.5 7.5v72.987a7.5 7.5 0 007.5 7.5h30.753a7.5 7.5 0 000-15h-23.253v-21.493h20.986a7.5 7.5 0 000-15h-20.986V231.31zm94.458 73.323a7.5 7.5 0 007.5-7.5v-24.536c4.52-.024 10.012-.05 13.01-.05 15.821 0 28.693-12.689 28.693-28.287s-12.872-28.287-28.693-28.287h-20.51c-4.03-.08-7.57 3.476-7.5 7.5v73.659a7.5 7.5 0 007.5 7.501zm20.51-73.659c7.423 0 13.693 6.084 13.693 13.287 0 7.202-6.27 13.287-13.693 13.287-2.976 0-8.4.025-12.909.049-.024-4.644-.064-21.771-.078-26.622h12.987z"/><path d="M485.653 84.161c1.266-7.017-.796-14.521-6.207-19.934l-31.673-31.672a22.35 22.35 0 00-15.91-6.59c-1.367 0-2.711.137-4.028.374A52.375 52.375 0 00382.324 0c-4.143 0-7.5 3.358-7.5 7.5s3.357 7.5 7.5 7.5a37.39 37.39 0 0132.443 18.74L402.51 45.998A253.28 253.28 0 00342.729 15h6.02c4.143 0 7.5-3.358 7.5-7.5s-3.357-7.5-7.5-7.5H129.675c-18.92 0-36.23 10.177-45.509 26.338a22.727 22.727 0 00-4.029-.374 22.35 22.35 0 00-15.91 6.59L32.555 64.227c-5.539 5.539-7.572 13.27-6.116 20.425A52.456 52.456 0 000 130.232L.26 381.84a52.373 52.373 0 0026.411 45.539 22.703 22.703 0 00-.457 4.521 22.35 22.35 0 006.59 15.91l31.644 31.644c4.25 4.25 9.9 6.59 15.91 6.59 1.365 0 2.706-.136 4.022-.373A52.375 52.375 0 00129.871 512h252.518c19.074 0 36.238-10.132 45.493-26.326 1.314.236 2.655.372 4.019.372 6.01 0 11.66-2.341 15.909-6.59l31.646-31.644c5.41-5.411 7.471-12.912 6.208-19.927A52.37 52.37 0 00512 382.389V129.675c0-19.03-10.154-36.247-26.347-45.514zm-59.094-40.999a7.452 7.452 0 015.304-2.197c2.004 0 3.887.78 5.303 2.197l31.673 31.672c2.925 2.924 2.925 7.683 0 10.607l-11.904 11.904a260.35 260.35 0 00-19.914-22.363 260.206 260.206 0 00-22.364-19.915zm-.147 383.25c-14.93 14.929-31.481 27.643-49.245 38.01l-29.154-50.495c22.335-13.026 41.711-30.693 56.984-52.146 3.19-4.481 6.156-9.08 8.908-13.779l50.517 29.166c-10.367 17.764-23.08 34.315-38.01 49.244zm-340.825 0c-14.929-14.929-27.643-31.481-38.01-49.245l50.526-29.171a184.16 184.16 0 0065.899 65.899l-29.171 50.526c-17.763-10.366-34.314-23.079-49.244-38.009zm91.67-5.472c23.859 11.437 50.565 17.85 78.743 17.85a183.95 183.95 0 0029.915-2.448 7.499 7.499 0 006.176-8.623 7.5 7.5 0 00-8.623-6.176A168.869 168.869 0 01256 423.79c-92.519 0-167.79-75.27-167.79-167.79 0-7.672.525-15.391 1.562-22.941a7.5 7.5 0 00-6.41-8.45 7.498 7.498 0 00-8.45 6.41A184.334 184.334 0 0073.21 256c0 28.178 6.413 54.884 17.85 78.743l-50.647 29.241c-15.484-30.838-24.159-64.858-25.275-100.187l-.016-15.165c1.059-35.483 9.744-69.653 25.291-100.616l50.641 29.237a182.978 182.978 0 00-7.59 18.349 7.5 7.5 0 0014.154 4.969c2.835-8.088 6.259-15.82 10.198-23.246C136.631 123.161 193.413 88.21 256 88.21c92.519 0 167.79 75.27 167.79 167.79 0 62.414-35.098 119.459-89.308 148.278-6.707 3.551-13.667 6.687-20.914 9.338a7.5 7.5 0 105.16 14.084 184.13 184.13 0 0016.024-6.745l29.233 50.632C330.882 488.207 294.117 497 256 497s-74.883-8.793-107.984-25.413zM85.587 85.588c14.929-14.929 31.481-27.643 49.245-38.01l29.183 50.546c-27.001 15.756-49.862 38.338-65.934 65.865l-50.503-29.158c10.366-17.762 23.08-34.314 38.009-49.243zm386 278.396l-50.631-29.232c11.728-24.435 17.833-51.183 17.833-78.752 0-28.177-6.413-54.884-17.85-78.743l50.647-29.242C488.207 181.117 497 217.882 497 256s-8.793 74.883-25.413 107.984zm-57.692-199.98a184.158 184.158 0 00-65.9-65.9l29.172-50.526c17.764 10.367 34.315 23.08 49.245 38.01 14.929 14.929 27.643 31.481 38.01 49.244zm-49.912-123.59L334.742 91.06C310.883 79.624 284.177 73.21 256 73.21a182.15 182.15 0 00-78.726 17.88l-29.258-50.676C181.117 23.793 217.882 15 256 15s74.882 8.793 107.983 25.414zM129.675 15h39.595a253.255 253.255 0 00-59.78 30.998L97.235 33.744C103.872 22.249 116.191 15 129.675 15zM43.161 74.834l31.672-31.672c2.924-2.924 7.682-2.925 10.607 0l11.904 11.905C89.573 61.228 82.1 67.862 74.981 74.981S61.227 89.573 55.066 97.345L43.161 85.441c-2.924-2.925-2.924-7.683 0-10.607zM15 130.224a37.439 37.439 0 0119.092-32.639l11.905 11.905a253.262 253.262 0 00-30.958 59.672zm.26 251.608l-.04-38.509a253.26 253.26 0 0030.895 59.358l-11.777 11.777a37.387 37.387 0 01-19.078-32.626zm59.796 87.017l-31.644-31.644a7.45 7.45 0 01-2.197-5.304c0-2.003.78-3.887 2.197-5.303l11.783-11.783a260.395 260.395 0 0019.787 22.204 260.158 260.158 0 0022.493 20.018l-11.812 11.812c-2.925 2.924-7.682 2.925-10.607 0zM129.871 497a37.384 37.384 0 01-32.419-18.727l12.176-12.176c18.52 12.961 38.55 23.328 59.642 30.903zm252.518 0h-39.66a253.275 253.275 0 0059.797-31.009l12.293 12.293C408.2 489.797 395.976 497 382.389 497zm86.46-59.796l-31.645 31.644c-1.416 1.417-3.3 2.197-5.303 2.197s-3.887-.78-5.303-2.197l-11.927-11.927a260.043 260.043 0 0022.349-19.903 260.337 260.337 0 0019.902-22.348l11.927 11.927c2.925 2.925 2.925 7.683 0 10.607zM497 382.389a37.377 37.377 0 01-18.727 32.419l-12.282-12.282A253.269 253.269 0 00497 342.73zm-30.998-272.9l12.26-12.259A37.347 37.347 0 01497 129.675v39.595a253.28 253.28 0 00-30.998-59.781z"/></symbol><symbol viewBox="0 0 512.006 512.006" id="left-arrow" xmlns="http://www.w3.org/2000/svg"><path d="M388.419 475.59L168.834 256.005 388.418 36.421c8.341-8.341 8.341-21.824 0-30.165s-21.824-8.341-30.165 0L123.586 240.923c-8.341 8.341-8.341 21.824 0 30.165l234.667 234.667a21.275 21.275 0 0015.083 6.251 21.277 21.277 0 0015.083-6.251c8.341-8.341 8.341-21.824 0-30.165z"/></symbol><symbol viewBox="0 0 12.8 16.8" id="lock" xmlns="http://www.w3.org/2000/svg"><path d="M11.2 5.6h-.8V4c0-2.2-1.8-4-4-4s-4 1.8-4 4v1.6h-.8C.7 5.6 0 6.3 0 7.2v8c0 .9.7 1.6 1.6 1.6h9.6c.9 0 1.6-.7 1.6-1.6v-8c0-.9-.7-1.6-1.6-1.6zm-4.8 7.2c-.9 0-1.6-.7-1.6-1.6s.7-1.6 1.6-1.6c.9 0 1.6.7 1.6 1.6s-.7 1.6-1.6 1.6zm2.5-7.2h-5V4c0-1.4 1.1-2.5 2.5-2.5S8.9 2.6 8.9 4v1.6zm0 0"/></symbol><symbol viewBox="0 1 511 512" id="logout" xmlns="http://www.w3.org/2000/svg"><path d="M470.96 116.15a10.02 10.02 0 00-16.78 10.96A235 235 0 01492.46 256c0 130.1-105.85 235.96-235.96 235.96S20.54 386.1 20.54 256 126.4 20.04 256.5 20.04c53.23 0 103.48 17.3 145.3 50.04a10.02 10.02 0 0012.36-15.79C368.77 18.77 314.26 0 256.5 0 188.12 0 123.83 26.63 75.48 74.98 27.13 123.33.5 187.62.5 256s26.63 132.67 74.98 181.02C123.83 485.37 188.12 512 256.5 512s132.67-26.63 181.02-74.98C485.87 388.67 512.5 324.38 512.5 256c0-49.9-14.36-98.26-41.54-139.85zm0 0"/><path d="M210.12 152.29a10.02 10.02 0 00-13.63-3.9 124.02 124.02 0 00-54.17 156.45 10.03 10.03 0 0018.48-7.79 103.96 103.96 0 0145.42-131.14 10.02 10.02 0 003.9-13.62zm-10.5 214.61c16.24 9.74 32.72 13.71 56.88 13.71 68.3 0 123.86-55.56 123.86-123.85 0-44.07-23.72-85.17-61.9-107.27a10.02 10.02 0 00-10.04 17.35 104.2 104.2 0 0151.9 89.92c0 57.24-46.58 103.81-103.82 103.81-20.48 0-33.54-3.04-46.57-10.86a10.02 10.02 0 10-10.31 17.2zm0 0"/><path d="M266.52 293.55V102a10.02 10.02 0 00-20.04 0v191.56a10.02 10.02 0 0020.04 0zm-83.28 35.88a10.02 10.02 0 10-18.58 7.53l.13.3a10.03 10.03 0 0018.58-7.52zm244.37-234.7a10.02 10.02 0 1018.58-7.53l-.12-.3a10.02 10.02 0 10-18.58 7.52zm0 0"/></symbol><symbol viewBox="0 0 368 368" id="meh" xmlns="http://www.w3.org/2000/svg"><path d="M184 0C82.54 0 0 82.54 0 184s82.54 184 184 184 184-82.54 184-184S285.46 0 184 0zm0 352c-92.64 0-168-75.36-168-168S91.36 16 184 16s168 75.36 168 168-75.36 168-168 168z"/><path d="M120 176c13.23 0 24-10.77 24-24s-10.77-24-24-24-24 10.77-24 24 10.77 24 24 24zm0-32c4.4 0 8 3.6 8 8s-3.6 8-8 8-8-3.6-8-8 3.6-8 8-8zm128-16c-13.23 0-24 10.77-24 24s10.77 24 24 24 24-10.77 24-24-10.77-24-24-24zm0 32c-4.4 0-8-3.6-8-8s3.6-8 8-8 8 3.6 8 8-3.6 8-8 8zm16 64H104a8 8 0 000 16h160a8 8 0 000-16z"/></symbol><symbol viewBox="0 0 512 512" id="menu" xmlns="http://www.w3.org/2000/svg"><circle cx="256" cy="256" r="64"/><circle cx="256" cy="448" r="64"/><circle cx="256" cy="64" r="64"/></symbol><symbol viewBox="0 0 512 512" id="minus-circle" xmlns="http://www.w3.org/2000/svg"><path d="M256 512C114.836 512 0 397.164 0 256S114.836 0 256 0s256 114.836 256 256-114.836 256-256 256zm0-480C132.48 32 32 132.48 32 256s100.48 224 224 224 224-100.48 224-224S379.52 32 256 32zm0 0"/><path d="M368 272H144c-8.832 0-16-7.168-16-16s7.168-16 16-16h224c8.832 0 16 7.168 16 16s-7.168 16-16 16zm0 0"/></symbol><symbol viewBox="0 0 46.02 46.02" id="move-to-next" xmlns="http://www.w3.org/2000/svg"><path d="M14.76 46.02a5.69 5.69 0 01-4.14-9.63l12.76-13.42L10.64 9.65a5.7 5.7 0 018.24-7.89l16.5 17.25a5.7 5.7 0 01.02 7.88L18.9 44.25a5.7 5.7 0 01-4.14 1.77z"/></symbol><symbol viewBox="0 0 426.667 426.667" id="plus" xmlns="http://www.w3.org/2000/svg"><path d="M405.332 192H234.668V21.332C234.668 9.559 225.109 0 213.332 0 201.559 0 192 9.559 192 21.332V192H21.332C9.559 192 0 201.559 0 213.332c0 11.777 9.559 21.336 21.332 21.336H192v170.664c0 11.777 9.559 21.336 21.332 21.336 11.777 0 21.336-9.559 21.336-21.336V234.668h170.664c11.777 0 21.336-9.559 21.336-21.336 0-11.773-9.559-21.332-21.336-21.332zm0 0"/></symbol><symbol viewBox="0 0 512 512" id="plus-circle" xmlns="http://www.w3.org/2000/svg"><path d="M256 512C114.836 512 0 397.164 0 256S114.836 0 256 0s256 114.836 256 256-114.836 256-256 256zm0-480C132.48 32 32 132.48 32 256s100.48 224 224 224 224-100.48 224-224S379.52 32 256 32zm0 0"/><path d="M368 272H144c-8.832 0-16-7.168-16-16s7.168-16 16-16h224c8.832 0 16 7.168 16 16s-7.168 16-16 16zm0 0"/><path d="M256 384c-8.832 0-16-7.168-16-16V144c0-8.832 7.168-16 16-16s16 7.168 16 16v224c0 8.832-7.168 16-16 16zm0 0"/></symbol><symbol viewBox="0 0 60 60" id="polls" xmlns="http://www.w3.org/2000/svg"><path d="M55 0H13a5 5 0 00-5 5v43H2a2 2 0 00-2 2v5a5 5 0 005 5h42a5 5 0 005-5V12h6a2 2 0 002-2V5a5 5 0 00-5-5zM9 58H5a3 3 0 01-3-3v-5h40v5c0 1.08.35 2.14 1 3zm41-3a3 3 0 01-6 0v-5a2 2 0 00-2-2H10V5a3 3 0 013-3h38.03A4.95 4.95 0 0050 5zm8-45h-6V5a3 3 0 016 0z"/><path d="M22 5a9 9 0 100 18 9 9 0 000-18zm0 16a7 7 0 110-14 7 7 0 010 14zm0 6a9 9 0 100 18 9 9 0 000-18zm0 16a7 7 0 110-14 7 7 0 010 14z"/><circle cx="18" cy="13" r="1"/><circle cx="26" cy="13" r="1"/><path d="M24.49 15.13a1 1 0 00-1.36.38.72.72 0 01-.2.21c-.12.09-.25.16-.39.2-.35.1-.73.1-1.08 0a1.37 1.37 0 01-.4-.2.73.73 0 01-.19-.2 1 1 0 10-1.74.97c.18.32.43.6.73.83a3.82 3.82 0 003.29.5c.35-.1.69-.28.99-.5.3-.22.55-.5.73-.83a1 1 0 00-.38-1.36z"/><circle cx="18" cy="35" r="1"/><circle cx="26" cy="35" r="1"/><path d="M24.14 37.68a3.84 3.84 0 00-3.29-.5c-.35.1-.69.28-.99.5-.3.22-.55.5-.73.83a1 1 0 101.74.98.72.72 0 01.2-.21c.12-.09.25-.16.39-.2.35-.1.73-.1 1.08 0 .14.04.27.11.4.2.07.05.14.13.19.2a1 1 0 101.74-.97c-.18-.32-.43-.6-.73-.83zM45 15a1 1 0 00-1 1v2h-8v-8h6a1 1 0 000-2h-6a2 2 0 00-2 2v8c0 1.1.9 2 2 2h8a2 2 0 002-2v-2a1 1 0 00-1-1zm-1 15h-8a2 2 0 00-2 2v8c0 1.1.9 2 2 2h8a2 2 0 002-2v-8a2 2 0 00-2-2zm-8 10v-8h8v8z"/><path d="M46.3 8.3L41 13.58l-1.3-1.3a1 1 0 00-1.4 1.42l2 2a1 1 0 001.4 0l6-6a1 1 0 00-1.4-1.42z"/></symbol><symbol viewBox="0 0 502 502" id="profile" xmlns="http://www.w3.org/2000/svg"><path d="M428.48 73.52C381.08 26.1 318.04 0 251 0S120.92 26.1 73.52 73.52 0 183.96 0 251a250.7 250.7 0 0035.13 128.11 252.55 252.55 0 0089.9 89.03C163.13 490.29 206.7 502 251 502s87.87-11.7 125.97-33.86a252.54 252.54 0 0089.9-89.03A250.7 250.7 0 00502 251c0-67.04-26.1-130.08-73.52-177.48zM251 20c127.37 0 231 103.63 231 231 0 36.04-8.4 71.47-24.42 103.43a252.63 252.63 0 00-80.61-74.57 249.89 249.89 0 00-74.03-28.43A100.04 100.04 0 00351 166c0-55.14-44.86-100-100-100s-100 44.86-100 100c0 36.13 19.27 67.85 48.06 85.42a249.91 249.91 0 00-74.03 28.44c-32 18.6-59.6 44.18-80.62 74.57A230.96 230.96 0 0120 251C20 123.63 123.63 20 251 20zm0 226c-44.11 0-80-35.89-80-80s35.89-80 80-80 80 35.89 80 80-35.89 80-80 80zm0 236c-79.06 0-153.42-41.23-195.54-108C97.58 307.25 171.94 266 251 266s153.42 41.24 195.54 108C404.42 440.78 330.05 482 251 482z"/><path d="M105.06 343.8c-7.95 7.66-15.36 16-22.03 24.8a10 10 0 0015.94 12.08 194.86 194.86 0 0119.97-22.48 10 10 0 00-13.88-14.4zm107.78-226.67A61.66 61.66 0 00189 166a10 10 0 1020 0 41.78 41.78 0 0116.16-33.11 10 10 0 00-12.32-15.76zm66.79-6.13a62.17 62.17 0 00-28.63-7 10 10 0 100 20c6.84 0 13.37 1.6 19.38 4.73a10 10 0 109.25-17.74z"/></symbol><symbol viewBox="0 0 512 512" id="rating" xmlns="http://www.w3.org/2000/svg"><path d="M499.51 463h-12.6v-35.46a7.5 7.5 0 10-14.98 0V463h-71.16V256.8h71.16v136.02a7.5 7.5 0 1014.99 0V254.3a12.5 12.5 0 00-12.49-12.48h-76.16a12.5 12.5 0 00-12.49 12.48V463h-19.1V303.25a12.5 12.5 0 00-12.48-12.48h-76.16a12.5 12.5 0 00-12.5 12.48V463h-19.09V173.48A12.5 12.5 0 00233.96 161H157.8a12.5 12.5 0 00-12.48 12.48v64.84a7.5 7.5 0 1014.98 0v-62.34h71.17V463H160.3V273.2a7.5 7.5 0 10-14.98 0V463h-19.1v-94.5a12.5 12.5 0 00-12.49-12.49H37.57a12.5 12.5 0 00-12.49 12.5V463h-12.6A12.5 12.5 0 000 475.48v23.9a12.5 12.5 0 0012.49 12.48H499.5a12.5 12.5 0 0012.5-12.48V475.5a12.5 12.5 0 00-12.49-12.5zM280.53 305.75h71.17V463h-71.17zM40.07 371h71.16v92H40.07zM497 496.88H15v-18.9h482.02v18.9zM150.98 85.94l-4.29 24.98a18.32 18.32 0 007.33 18.04 18.37 18.37 0 0019.42 1.4l22.44-11.8 22.44 11.8c6.26 3.29 13.7 2.75 19.42-1.4s8.53-11.07 7.33-18.04l-4.28-24.98 18.15-17.7a18.32 18.32 0 004.67-18.9 18.32 18.32 0 00-14.89-12.55l-25.09-3.64-11.22-22.74A18.32 18.32 0 00195.88.13c-7.07 0-13.4 3.94-16.53 10.28l-11.22 22.73-25.1 3.65c-6.99 1.02-12.69 5.83-14.88 12.55a18.32 18.32 0 004.67 18.9zm-8.57-31.97c.2-.61.87-2.07 2.78-2.35l26.24-3.81c4.16-.6 7.76-3.22 9.62-7l11.74-23.77c.85-1.74 2.45-1.92 3.1-1.92s2.23.18 3.09 1.92l11.73 23.78a12.77 12.77 0 009.62 6.99l26.24 3.8a3.36 3.36 0 012.79 2.36c.2.61.51 2.19-.88 3.54L229.5 76a12.78 12.78 0 00-3.68 11.32l4.49 26.13c.32 1.9-.86 3-1.38 3.37a3.37 3.37 0 01-3.63.27l-23.47-12.34a12.78 12.78 0 00-11.9 0l-23.46 12.34c-1.72.9-3.11.11-3.64-.27a3.37 3.37 0 01-1.37-3.37l4.48-26.13c.71-4.15-.66-8.38-3.67-11.31L143.28 57.5a3.36 3.36 0 01-.87-3.54z"/></symbol><symbol viewBox="0 0 491.24 491.24" id="refresh" xmlns="http://www.w3.org/2000/svg"><path d="M55.89 262.82c-3-26-.5-51.1 6.3-74.3 22.6-77.1 93.5-133.8 177.6-134.8V3.32c0-2.8 3.5-4.3 5.8-2.6l103.7 76.2c1.7 1.3 1.7 3.9 0 5.1l-103.6 76.2c-2.4 1.7-5.8.2-5.8-2.6v-50.3c-55.3.9-102.5 35-122.8 83.2-7.7 18.2-11.6 38.3-10.5 59.4 1.5 29 12.4 55.7 29.6 77.3 9.2 11.5 7 28.3-4.9 37-11.3 8.3-27.1 6-35.8-5-21.3-26.6-35.5-59-39.6-94.4zm299.4-96.8c17.3 21.5 28.2 48.3 29.6 77.3 1.1 21.2-2.9 41.3-10.5 59.4-20.3 48.2-67.5 82.4-122.8 83.2v-50.3c0-2.8-3.5-4.3-5.8-2.6l-103.7 76.2c-1.7 1.3-1.7 3.9 0 5.1l103.6 76.2c2.4 1.7 5.8.2 5.8-2.6v-50.4c84.1-.9 155.1-57.6 177.6-134.8 6.8-23.2 9.2-48.3 6.3-74.3-4-35.4-18.2-67.8-39.5-94.4-8.8-11-24.5-13.3-35.8-5-11.8 8.7-14 25.5-4.8 37z"/></symbol><symbol viewBox="0 0 512 512" id="reports" xmlns="http://www.w3.org/2000/svg"><path d="M356.14 88H156.19a10 10 0 00-10 10v72a10 10 0 0010 10h199.95a10 10 0 0010-10V98a10 10 0 00-10-10zm-10 72H166.19v-52h179.95v52zm-190 76h199.95a10 10 0 000-20H156.14a10 10 0 000 20zm200 36h-.11a10 10 0 000 20h.1a10 10 0 000-20zm-40 0h-160a10 10 0 000 20h160a10 10 0 000-20z"/><path d="M510.7 351.08l-64.92-114.87a10 10 0 00-8.7-5.08H422V70c0-16.54-13.46-30-30-30h-2V30c0-16.54-13.46-30-30-30H152c-16.54 0-30 13.46-30 30v10h-2c-16.54 0-30 13.46-30 30v161.13H75.19a10 10 0 00-8.7 5.07L1.3 351.06A9.94 9.94 0 000 356v146a10 10 0 0010 10h45.83a10 10 0 000-20H20V366h196.22c4.48 17.79 20.61 31 39.77 31s35.3-13.21 39.77-31H492v126H135.83a10 10 0 000 20H502a10 10 0 0010-10V356c0-1.79-.48-3.46-1.3-4.92zM142 30c0-5.51 4.49-10 10-10h208c5.51 0 10 4.49 10 10v10H142V30zM81.01 251.13H90V346H27.17l53.84-94.87zM286.99 346a10 10 0 00-10 10c0 11.58-9.42 21-21 21s-21-9.42-21-21a10 10 0 00-10-10H110V70c0-5.51 4.48-10 10-10h272c5.51 0 10 4.49 10 10v276H287zM422 346v-94.87h9.24L484.86 346H422z"/><path d="M172.98 404.17a10 10 0 00-10 10v29.66a10 10 0 0010 10H339a10 10 0 0010-10v-29.66a10 10 0 00-20 0v19.66H182.98v-19.66a10 10 0 00-10-10zM95.83 492c-2.63 0-5.21 1.07-7.07 2.93s-2.93 4.44-2.93 7.07 1.07 5.21 2.93 7.07a10.08 10.08 0 007.07 2.93 10.03 10.03 0 007.07-17.07 10.07 10.07 0 00-7.07-2.93z"/></symbol><symbol viewBox="0 0 368 368" id="sad" xmlns="http://www.w3.org/2000/svg"><path d="M184 0C82.54 0 0 82.54 0 184s82.54 184 184 184 184-82.54 184-184S285.46 0 184 0zm0 352c-92.64 0-168-75.36-168-168S91.36 16 184 16c92.63 0 168 75.36 168 168s-75.37 168-168 168z"/><path d="M144 152c0-13.23-10.77-24-24-24s-24 10.77-24 24 10.77 24 24 24 24-10.77 24-24zm-32 0c0-4.4 3.6-8 8-8s8 3.6 8 8-3.6 8-8 8-8-3.6-8-8zm136-24c-13.23 0-24 10.77-24 24s10.77 24 24 24 24-10.77 24-24-10.77-24-24-24zm0 32a8 8 0 11.02-16.02A8 8 0 01248 160zm-64 64a104.66 104.66 0 00-77.96 34.66 8 8 0 0011.92 10.68A88.63 88.63 0 01184 240a88.63 88.63 0 0166.04 29.34 7.96 7.96 0 0011.3.62 8 8 0 00.62-11.3A104.67 104.67 0 00184 224z"/></symbol><symbol viewBox="0 0 368 368" id="smile" xmlns="http://www.w3.org/2000/svg"><path d="M184 0C82.54 0 0 82.54 0 184s82.54 184 184 184 184-82.54 184-184S285.46 0 184 0zm0 352c-92.64 0-168-75.36-168-168S91.36 16 184 16s168 75.36 168 168-75.36 168-168 168z"/><path d="M144 152c0-13.23-10.77-24-24-24s-24 10.77-24 24 10.77 24 24 24 24-10.77 24-24zm-32 0c0-4.4 3.6-8 8-8s8 3.6 8 8-3.6 8-8 8-8-3.6-8-8zm136-24c-13.23 0-24 10.77-24 24s10.77 24 24 24 24-10.77 24-24-10.77-24-24-24zm0 32c-4.4 0-8-3.6-8-8s3.6-8 8-8 8 3.6 8 8-3.6 8-8 8zm13.34 66.04a8 8 0 00-11.3.62A88.62 88.62 0 01184 256a88.63 88.63 0 01-66.04-29.34 8 8 0 10-11.92 10.68A104.66 104.66 0 00184 272c29.83 0 58.25-12.64 77.96-34.66a8 8 0 00-.62-11.3z"/></symbol><symbol viewBox="0 0 512.02 512.02" id="sort" xmlns="http://www.w3.org/2000/svg"><path d="M155.3 4.65a16 16 0 00-22.57 0l-112 112 22.56 22.72 84.64-84.8v457.44h32V54.57l84.64 84.64 22.72-22.56-112-112zm313.27 368l-84.64 84.8V.01h-32v457.44l-84.64-84.64-22.56 22.56 112 112a16 16 0 0022.56 0l112-112-22.72-22.72z"/></symbol><symbol viewBox="0 0 512 512" id="statistics" xmlns="http://www.w3.org/2000/svg"><path d="M326.62 133.06c13.79 0 25-11.21 25-25s-11.21-25-25-25-25 11.22-25 25c0 5.63 1.87 10.83 5.03 15.02l-41.08 57.4a24.9 24.9 0 00-24.8 5.46L213.4 170.4a25.03 25.03 0 00-24.44-30.26 25.03 25.03 0 00-24.44 30.26l-27.38 15.54a24.9 24.9 0 00-17.01-6.7c-13.79 0-25 11.2-25 25s11.21 25 25 25a25.03 25.03 0 0024.44-30.27l27.38-15.53a24.9 24.9 0 0034.03 0l27.38 15.54a25.03 25.03 0 0024.44 30.26c13.78 0 25-11.22 25-25 0-5.64-1.87-10.84-5.03-15.02l41.08-57.4c2.45.8 5.06 1.24 7.78 1.24zm0-35a10.01 10.01 0 010 20 10.01 10.01 0 010-20zm-206.5 116.17a10.01 10.01 0 010-20 10.01 10.01 0 010 20zm68.83-39.08a10.01 10.01 0 010-20 10.01 10.01 0 010 20zm68.84 39.08a10.01 10.01 0 010-20 10.01 10.01 0 010 20z"/><path d="M418.8 376.96H21.2a6.22 6.22 0 01-6.21-6.21V61.33a6.22 6.22 0 016.22-6.21h35.35a7.5 7.5 0 100-15H21.22A21.24 21.24 0 000 61.33v309.42c0 11.7 9.52 21.21 21.21 21.21h51.72v16.51c0 9.4 7.65 17.05 17.05 17.05h75.07l-35.34 69a7.5 7.5 0 0013.36 6.84l38.84-75.84h82.92l38.84 75.84a7.5 7.5 0 1013.35-6.84l-35.34-69h75.08c9.4 0 17.05-7.64 17.05-17.05v-16.5h44.99a7.5 7.5 0 100-15zm-59.99 31.51c0 1.13-.92 2.05-2.05 2.05H89.98a2.06 2.06 0 01-2.05-2.05v-16.5H358.8v16.5zM86.57 55.12h338.95a6.22 6.22 0 016.22 6.21v71.31a7.5 7.5 0 1015 0v-71.3c0-11.7-9.52-21.22-21.22-21.22H265V25.37a18.84 18.84 0 00-18.82-18.81h-45.62a18.84 18.84 0 00-18.82 18.81v14.75H86.57a7.5 7.5 0 100 15zm110.17-29.75c0-2.1 1.71-3.81 3.82-3.81h45.62c2.1 0 3.81 1.71 3.81 3.81v14.75h-53.25V25.37z"/><path d="M104.9 267.58a7.5 7.5 0 00-7.5 7.5v66.27a7.5 7.5 0 007.5 7.5h30.43a7.5 7.5 0 007.5-7.5v-66.27a7.5 7.5 0 00-7.5-7.5H104.9zm22.93 66.27H112.4v-51.27h15.43v51.27zm45.91-104.6a7.5 7.5 0 00-7.5 7.5v104.6a7.5 7.5 0 007.5 7.5h30.42a7.5 7.5 0 007.5-7.5v-104.6a7.5 7.5 0 00-7.5-7.5h-30.42zm22.92 104.6h-15.42v-89.6h15.42v89.6zm45.91-66.27a7.5 7.5 0 00-7.5 7.5v66.27a7.5 7.5 0 007.5 7.5H273a7.5 7.5 0 007.5-7.5v-66.27a7.5 7.5 0 00-7.5-7.5h-30.43zm22.93 66.27h-15.43v-51.27h15.43v51.27zm45.9-22.02a7.5 7.5 0 00-7.5 7.5v22.02a7.5 7.5 0 007.5 7.5h30.44a7.5 7.5 0 100-15H318.9v-14.52a7.5 7.5 0 00-7.5-7.5zm196.78 72.19l-43.03-74.53a97.54 97.54 0 0023.08-41.64 97.38 97.38 0 00-9.8-74.38c-27.02-46.81-87.1-62.9-133.9-35.88-46.81 27.02-62.9 87.1-35.88 133.9a97.4 97.4 0 0059.52 45.68 98.57 98.57 0 0025.53 3.38 96.8 96.8 0 0022.08-2.55l43.01 74.53a28.52 28.52 0 0049.38-28.51zm-136.13-61.34a82.49 82.49 0 01-50.41-38.69c-22.9-39.64-9.26-90.52 30.39-113.41a83.08 83.08 0 01113.42 30.4 82.48 82.48 0 018.29 63 82.48 82.48 0 01-38.69 50.4 82.49 82.49 0 01-63 8.3zm118.2 87.3a13.52 13.52 0 01-18.46-4.95l-41.4-71.7a99.52 99.52 0 0023.4-13.52l41.4 71.7a13.53 13.53 0 01-4.95 18.46z"/><path d="M461.54 263.61A70.98 70.98 0 00458 212.2a7.5 7.5 0 10-13.57 6.4 56 56 0 012.8 40.57 56.03 56.03 0 01-25.58 32c-13 7.5-28.15 9.5-42.65 5.61a55.84 55.84 0 01-34.13-26.18 56.27 56.27 0 0120.58-76.79 56.13 56.13 0 0162.05 3.86 7.5 7.5 0 109.05-11.96 71.1 71.1 0 00-78.6-4.89c-16.48 9.51-28.26 24.87-33.18 43.24s-2.4 37.56 7.11 54.03a70.75 70.75 0 0043.24 33.18 70.79 70.79 0 0054.03-7.11 70.98 70.98 0 0032.4-40.54z"/></symbol><symbol viewBox="-133 -86 512.2 512.2" id="up-arrow" xmlns="http://www.w3.org/2000/svg"><path d="M343.7 130.6L130.3-82.9c-2-2-4.7-3.1-7.6-3.1a11 11 0 00-7.6 3.1L-97.6 130.6a10.68 10.68 0 007.6 18.2H27.3v266.7c0 5.9 4.8 10.7 10.7 10.7h170.7c5.9 0 10.7-4.8 10.7-10.7V148.8h116.9c4.3 0 8.2-2.6 9.9-6.6 1.5-4 .6-8.5-2.5-11.6z"/></symbol></svg>